<svg width="23.999999999999996" height="23.999999999999996" xmlns="http://www.w3.org/2000/svg">

 <g>
  <title>background</title>
  <rect fill="none" id="canvas_background" height="402" width="582" y="-1" x="-1"/>
 </g>
 <g>
  <title>Layer 1</title>
  <path fill="#f5f5f5" id="XMLID_54_" d="m20.823,14.454c-0.066,-0.066 -0.15,-0.112 -0.242,-0.133c-0.179,-0.04 -0.389,0.012 -0.687,0.097c-0.413,0.118 -1.038,0.295 -1.827,0.295c-1.334,0 -2.631,-0.522 -3.857,-1.55l1.419,-1.418c0.143,-0.143 0.186,-0.358 0.108,-0.545c-0.077,-0.187 -0.26,-0.309 -0.462,-0.309l-1.157,0c-0.555,0 -1.006,-0.451 -1.006,-1.006l0,-1.156c0,-0.202 -0.122,-0.385 -0.309,-0.462c-0.189,-0.078 -0.403,-0.035 -0.545,0.109l-1.417,1.42c-2.145,-2.554 -1.527,-4.731 -1.257,-5.683c0.088,-0.309 0.141,-0.495 0.097,-0.688c-0.021,-0.092 -0.067,-0.175 -0.133,-0.241c-1.398,-1.409 -3.261,-2.184 -5.246,-2.184c-1.043,0 -2.053,0.213 -3.004,0.633c-0.147,0.065 -0.253,0.196 -0.287,0.353c-0.033,0.156 0.011,0.32 0.117,0.439c1.886,2.096 2.572,4.973 1.836,7.697c-0.051,0.187 0.011,0.385 0.158,0.511c0.127,0.108 0.254,0.218 0.373,0.336c1.111,1.11 1.77,2.592 1.858,4.172c0.012,0.221 0.013,0.442 0.003,0.662c-0.056,1.143 -0.516,2.318 -1.333,3.396l-0.242,0.32c-0.151,0.199 -0.132,0.479 0.045,0.655c0.176,0.177 0.455,0.197 0.655,0.045l0.32,-0.243c1.078,-0.816 2.254,-1.276 3.397,-1.331c0.221,-0.011 0.441,-0.01 0.662,0.002c1.58,0.087 3.062,0.747 4.174,1.858c0.119,0.119 0.228,0.246 0.335,0.372c0.125,0.147 0.32,0.208 0.512,0.159c2.674,-0.726 5.633,-0.024 7.7,1.834c0.092,0.085 0.213,0.13 0.335,0.13c0.035,0 0.07,-0.003 0.104,-0.011c0.157,-0.033 0.288,-0.14 0.353,-0.287c1.234,-2.789 0.61,-6.104 -1.55,-8.248z"/>
 </g>
</svg>