<svg width="1024" height="768.0000000000001" xmlns="http://www.w3.org/2000/svg">

 <g>
  <title>background</title>
  <rect fill="#9e9e9e" id="canvas_background" height="770" width="1026" y="-1" x="-1"/>
 </g>
 <g>
  <title>Layer 1</title>
  <path stroke="null" fill="#616161" id="XMLID_54_" d="m761.629582,426.459253c-1.70173,-1.675999 -3.867568,-2.844119 -6.239677,-3.377391c-4.615298,-1.015757 -10.029894,0.304727 -17.713463,2.46321c-10.648705,2.996483 -26.763573,7.491207 -47.106982,7.491207c-34.395574,0 -67.837149,-13.255627 -99.448074,-39.360577l36.587197,-36.008579c3.687082,-3.631331 4.795785,-9.091024 2.784649,-13.839687c-1.985352,-4.748663 -6.703785,-7.846721 -11.912111,-7.846721l-29.831844,0c-14.310003,0 -25.938492,-11.452658 -25.938492,-25.546284l0,-29.355372c0,-5.129572 -3.145622,-9.776659 -7.967191,-11.731991c-4.873136,-1.980726 -10.390867,-0.888787 -14.052165,2.767937l-36.535629,36.059367c-55.306227,-64.856073 -39.371846,-120.138638 -32.410223,-144.313651c2.268973,-7.846721 3.635514,-12.569991 2.501028,-17.471017c-0.54146,-2.336241 -1.727514,-4.443936 -3.429244,-6.119935c-36.045737,-35.780034 -84.080936,-55.460323 -135.261757,-55.460323c-26.892492,0 -52.934119,5.408905 -77.454502,16.074352c-3.790217,1.650605 -6.523299,4.977208 -7.399947,8.964054c-0.850865,3.961452 0.283622,8.126055 3.016703,11.147931c48.628226,53.225658 66.315905,126.283967 47.339037,195.457007c-1.314973,4.748663 0.283622,9.776659 4.073839,12.976293c3.274541,2.742543 6.549082,5.535875 9.617353,8.532357c28.64579,28.187252 45.637306,65.821042 47.90628,105.943437c0.309405,5.612056 0.335189,11.224113 0.077351,16.810775c-1.443892,29.025251 -13.304435,58.863108 -34.369791,86.237754l-6.239677,8.126055c-3.893352,5.05339 -3.40346,12.163688 1.160271,16.633018c4.537947,4.494724 11.731624,5.002602 16.888382,1.142726l8.250812,-6.170723c27.794925,-20.721439 58.11666,-32.402643 87.587531,-33.799308c5.698217,-0.279333 11.370651,-0.253939 17.068868,0.050788c40.738387,2.209271 78.949962,18.969259 107.621535,47.181904c3.068271,3.021877 5.878704,6.246904 8.637569,9.446538c3.222974,3.732906 8.250812,5.281935 13.2013,4.037633c68.945852,-18.435986 145.240083,-0.609454 198.535175,46.57245c2.372109,2.158483 5.491947,3.30121 8.637569,3.30121c0.902433,0 1.804865,-0.076182 2.681514,-0.279333c4.048055,-0.837999 7.425731,-3.555149 9.101678,-7.288055c31.817196,-70.823645 15.728111,-155.004491 -39.964873,-209.449057z"/>
 </g>
</svg>