<svg width="57" height="45" viewBox="0 0 57 45" fill="none" xmlns="http://www.w3.org/2000/svg">
<path d="M10.3739 22.5763C9.18856 22.5763 8.02987 22.2249 7.04433 21.5663C6.05879 20.9078 5.29065 19.9718 4.83705 18.8768C4.38346 17.7817 4.26477 16.5767 4.49602 15.4142C4.72726 14.2516 5.29803 13.1838 6.13617 12.3456C6.97431 11.5075 8.04216 10.9367 9.20469 10.7055C10.3672 10.4742 11.5722 10.5929 12.6673 11.0465C13.7624 11.5001 14.6983 12.2683 15.3569 13.2538C16.0154 14.2393 16.3669 15.398 16.3669 16.5833C16.365 18.1722 15.733 19.6955 14.6095 20.819C13.486 21.9425 11.9627 22.5745 10.3739 22.5763V22.5763ZM10.3739 12.0913C9.48519 12.0913 8.61647 12.3549 7.87758 12.8486C7.13869 13.3424 6.56281 14.0441 6.22278 14.8652C5.88274 15.6862 5.79382 16.5897 5.96727 17.4612C6.14071 18.3328 6.56873 19.1334 7.19719 19.7617C7.82564 20.39 8.62631 20.8179 9.49793 20.9911C10.3696 21.1644 11.273 21.0753 12.094 20.735C12.9149 20.3948 13.6166 19.8188 14.1101 19.0798C14.6037 18.3408 14.8671 17.472 14.8669 16.5833C14.8647 15.3925 14.3907 14.251 13.5485 13.409C12.7063 12.567 11.5647 12.0932 10.3739 12.0913V12.0913Z" fill="#00796B"/>
<path d="M46.6258 22.5763C45.4405 22.5763 44.2818 22.2249 43.2963 21.5663C42.3107 20.9078 41.5426 19.9718 41.089 18.8768C40.6354 17.7817 40.5167 16.5767 40.748 15.4142C40.9792 14.2516 41.55 13.1838 42.3881 12.3456C43.2263 11.5075 44.2941 10.9367 45.4566 10.7055C46.6192 10.4742 47.8242 10.5929 48.9192 11.0465C50.0143 11.5001 50.9503 12.2683 51.6088 13.2538C52.2673 14.2393 52.6188 15.398 52.6188 16.5833C52.617 18.1722 51.985 19.6955 50.8615 20.819C49.738 21.9425 48.2147 22.5745 46.6258 22.5763V22.5763ZM46.6258 12.0913C45.7371 12.0913 44.8684 12.3549 44.1295 12.8486C43.3906 13.3424 42.8148 14.0441 42.4747 14.8652C42.1347 15.6862 42.0458 16.5897 42.2192 17.4612C42.3927 18.3328 42.8207 19.1334 43.4491 19.7617C44.0776 20.39 44.8783 20.8179 45.7499 20.9911C46.6215 21.1644 47.5249 21.0753 48.3459 20.735C49.1669 20.3948 49.8685 19.8188 50.3621 19.0798C50.8557 18.3408 51.119 17.472 51.1188 16.5833C51.1167 15.3925 50.6426 14.251 49.8004 13.409C48.9583 12.567 47.8167 12.0932 46.6258 12.0913V12.0913Z" fill="#00796B"/>
<path d="M31.6998 14.3193H25.4668C24.9141 14.3185 24.3842 14.0986 23.9934 13.7078C23.6026 13.3169 23.3826 12.7871 23.3818 12.2343V10.8623C23.3826 10.3096 23.6026 9.77974 23.9934 9.3889C24.3842 8.99806 24.9141 8.77814 25.4668 8.77734H31.6998C32.2527 8.77787 32.7829 8.99768 33.1739 9.38855C33.565 9.77942 33.785 10.3094 33.7858 10.8623V12.2343C33.785 12.7872 33.565 13.3173 33.1739 13.7081C32.7829 14.099 32.2527 14.3188 31.6998 14.3193ZM25.4628 10.2773C25.3078 10.2776 25.1591 10.3393 25.0495 10.449C24.9398 10.5586 24.8781 10.7073 24.8778 10.8623V12.2343C24.8778 12.3112 24.893 12.3872 24.9224 12.4582C24.9518 12.5292 24.9949 12.5937 25.0492 12.648C25.1035 12.7023 25.168 12.7454 25.239 12.7748C25.3099 12.8042 25.386 12.8193 25.4628 12.8193H31.6998C31.8551 12.8193 32.004 12.7577 32.1138 12.6481C32.2237 12.5384 32.2856 12.3896 32.2858 12.2343V10.8623C32.2853 10.7072 32.2234 10.5585 32.1136 10.4489C32.0037 10.3393 31.855 10.2776 31.6998 10.2773H28.5813H25.4628Z" fill="#00796B"/>
<path d="M32.9506 10.2769C32.8025 10.2774 32.6575 10.234 32.534 10.1522C32.4105 10.0704 32.314 9.9538 32.2567 9.8172C32.1994 9.68061 32.1838 9.5301 32.2119 9.38465C32.24 9.2392 32.3105 9.10533 32.4146 8.99993L35.3836 5.96893C35.5228 5.82678 35.7128 5.74576 35.9118 5.74369C36.1108 5.74163 36.3024 5.81869 36.4446 5.95793C36.5868 6.09717 36.6678 6.28718 36.6698 6.48615C36.6719 6.68513 36.5948 6.87678 36.4556 7.01893L33.4866 10.0499C33.4169 10.1216 33.3336 10.1786 33.2416 10.2176C33.1495 10.2566 33.0506 10.2768 32.9506 10.2769V10.2769Z" fill="#00796B"/>
<path d="M33.1338 13.411C32.976 13.411 32.8222 13.3612 32.6943 13.2687C32.5664 13.1762 32.4709 13.0457 32.4215 12.8958C32.3721 12.7458 32.3712 12.5842 32.419 12.4337C32.4669 12.2833 32.5609 12.1518 32.6878 12.058L35.5678 9.93395C35.6469 9.87297 35.7373 9.82839 35.8339 9.80282C35.9304 9.77726 36.0311 9.77123 36.1299 9.78509C36.2288 9.79895 36.324 9.83241 36.4097 9.88352C36.4955 9.93463 36.5702 10.0024 36.6295 10.0827C36.6888 10.1631 36.7314 10.2545 36.7549 10.3515C36.7783 10.4486 36.7822 10.5494 36.7662 10.6479C36.7502 10.7465 36.7147 10.8409 36.6617 10.9256C36.6088 11.0102 36.5394 11.0834 36.4578 11.141L33.5788 13.265C33.45 13.3602 33.294 13.4114 33.1338 13.411V13.411Z" fill="#00796B"/>
<path d="M24.0424 10.2769C23.9426 10.2772 23.8437 10.2574 23.7516 10.2187C23.6596 10.1801 23.5762 10.1234 23.5064 10.0519L20.5374 7.02093C20.4668 6.95096 20.4109 6.86765 20.3728 6.77586C20.3346 6.68406 20.3152 6.58561 20.3154 6.48621C20.3157 6.38682 20.3357 6.28847 20.3744 6.19689C20.413 6.1053 20.4694 6.02231 20.5404 5.95273C20.6113 5.88314 20.6954 5.82836 20.7878 5.79157C20.8801 5.75477 20.9788 5.7367 21.0782 5.73839C21.1776 5.74008 21.2756 5.76151 21.3667 5.80143C21.4577 5.84136 21.5399 5.89897 21.6084 5.97093L24.5774 8.99993C24.6813 9.10519 24.7516 9.23883 24.7796 9.384C24.8077 9.52918 24.7921 9.6794 24.7349 9.81574C24.6777 9.95208 24.5814 10.0684 24.4582 10.1501C24.3349 10.2319 24.1903 10.2753 24.0424 10.2749V10.2769V10.2769Z" fill="#00796B"/>
<path d="M23.9509 13.4112C23.7911 13.4114 23.6354 13.3603 23.5069 13.2652L20.6269 11.1412C20.5476 11.0827 20.4807 11.0092 20.4298 10.9248C20.379 10.8404 20.3453 10.7469 20.3306 10.6494C20.316 10.552 20.3206 10.4527 20.3443 10.3571C20.3681 10.2615 20.4104 10.1715 20.4689 10.0922C20.5274 10.013 20.6009 9.94601 20.6853 9.89518C20.7697 9.84435 20.8633 9.81064 20.9607 9.79596C21.0581 9.78129 21.1574 9.78595 21.253 9.80967C21.3486 9.83339 21.4386 9.87571 21.5179 9.93422L24.3999 12.0582C24.5268 12.1521 24.6209 12.2836 24.6687 12.434C24.7165 12.5844 24.7156 12.7461 24.6662 12.896C24.6168 13.0459 24.5213 13.1764 24.3934 13.2689C24.2656 13.3614 24.1117 13.4112 23.9539 13.4112H23.9509Z" fill="#00796B"/>
<path d="M28.5004 17.8421C26.7829 17.8421 25.1039 17.3328 23.6758 16.3786C22.2478 15.4244 21.1347 14.0681 20.4774 12.4813C19.8202 10.8946 19.6482 9.14849 19.9833 7.46396C20.3183 5.77943 21.1454 4.23209 22.3599 3.01761C23.5744 1.80313 25.1217 0.97606 26.8062 0.640986C28.4908 0.305912 30.2368 0.477884 31.8236 1.13515C33.4104 1.79243 34.7667 2.90548 35.7209 4.33355C36.6751 5.76163 37.1844 7.44059 37.1844 9.15813C37.1818 11.4605 36.266 13.6677 34.638 15.2957C33.01 16.9237 30.8027 17.8395 28.5004 17.8421ZM28.5004 1.97413C27.0795 1.97413 25.6906 2.39546 24.5092 3.18485C23.3278 3.97424 22.407 5.09622 21.8633 6.40893C21.3195 7.72163 21.1773 9.16609 21.4544 10.5597C21.7316 11.9532 22.4159 13.2333 23.4206 14.238C24.4253 15.2427 25.7053 15.9269 27.0989 16.2041C28.4924 16.4813 29.9369 16.339 31.2496 15.7953C32.5623 15.2515 33.6843 14.3307 34.4737 13.1493C35.2631 11.9679 35.6844 10.579 35.6844 9.15813C35.6823 7.25346 34.9247 5.42741 33.5779 4.08061C32.2311 2.73381 30.4051 1.97624 28.5004 1.97413V1.97413Z" fill="#00796B"/>
<path d="M42.4985 44.7143H14.3145V27.9943C14.3176 24.955 15.5263 22.0411 17.6753 19.8919C19.8243 17.7427 22.7382 16.5337 25.7775 16.5303H31.0355C34.0747 16.5337 36.9886 17.7427 39.1376 19.8919C41.2866 22.0411 42.4953 24.955 42.4985 27.9943V44.7143ZM15.8145 26.4943H40.9985C36 26.4943 35.5 26.9885 32.5 26.4943C29.5 26.9885 30.6416 26.4975 28 26.4943H22.5C19.8584 26.4975 22.5 26.4943 20 26.4943C18.1322 28.3622 15.8174 25.3527 15.8145 27.9943V26.4943Z" fill="#00796B"/>
<path d="M26.3652 7.24707C26.7794 7.24707 27.1152 6.91128 27.1152 6.49707C27.1152 6.08286 26.7794 5.74707 26.3652 5.74707C25.951 5.74707 25.6152 6.08286 25.6152 6.49707C25.6152 6.91128 25.951 7.24707 26.3652 7.24707Z" fill="#00796B"/>
<path d="M31.3848 6.5C31.3848 6.64834 31.3408 6.79334 31.2584 6.91668C31.176 7.04001 31.0588 7.13614 30.9218 7.19291C30.7847 7.24967 30.6339 7.26453 30.4884 7.23559C30.343 7.20665 30.2093 7.13522 30.1044 7.03033C29.9995 6.92544 29.9281 6.7918 29.8992 6.64632C29.8702 6.50083 29.8851 6.35003 29.9419 6.21299C29.9986 6.07594 30.0948 5.95881 30.2181 5.8764C30.3414 5.79399 30.4864 5.75 30.6348 5.75C30.8337 5.75 31.0244 5.82902 31.1651 5.96967C31.3057 6.11032 31.3848 6.30109 31.3848 6.5V6.5Z" fill="#00796B"/>
<path d="M56.5502 40.8319H41.8422C41.6433 40.8319 41.4526 40.7529 41.3119 40.6123C41.1713 40.4716 41.0922 40.2808 41.0922 40.0819C41.0922 39.883 41.1713 39.6923 41.3119 39.5516C41.4526 39.411 41.6433 39.3319 41.8422 39.3319H55.0502V29.3859C55.0473 27.5568 54.3194 25.8035 53.0261 24.5101C51.7327 23.2167 49.9793 22.4888 48.1502 22.4859H45.1002C43.707 22.4854 42.3466 22.9092 41.2002 23.7009C41.1192 23.7597 41.0272 23.8017 40.9297 23.8244C40.8322 23.8471 40.7311 23.85 40.6324 23.833C40.5338 23.816 40.4395 23.7794 40.3552 23.7254C40.2709 23.6714 40.1982 23.6011 40.1416 23.5186C40.0849 23.436 40.0453 23.343 40.0251 23.2449C40.005 23.1468 40.0046 23.0457 40.0242 22.9475C40.0437 22.8493 40.0827 22.756 40.1389 22.6731C40.1951 22.5903 40.2673 22.5195 40.3512 22.4649C41.7467 21.4993 43.4033 20.982 45.1002 20.9819H48.1442C50.3711 20.9851 52.5058 21.8711 54.0804 23.4457C55.6551 25.0204 56.5411 27.1551 56.5442 29.3819L56.5502 40.8319V40.8319Z" fill="#00796B"/>
<path d="M15.1582 40.8323H0.450195V29.3863C0.453634 27.1596 1.33974 25.025 2.9143 23.4504C4.48886 21.8759 6.62343 20.9898 8.8502 20.9863H11.9002C13.5977 20.9848 15.2554 21.5007 16.6522 22.4653C16.7334 22.5211 16.8027 22.5924 16.8563 22.675C16.91 22.7576 16.9468 22.85 16.9647 22.9469C16.9826 23.0437 16.9813 23.1431 16.9608 23.2395C16.9403 23.3358 16.901 23.4272 16.8452 23.5083C16.7894 23.5895 16.7181 23.6589 16.6355 23.7125C16.5529 23.7661 16.4605 23.8029 16.3637 23.8208C16.2668 23.8388 16.1674 23.8374 16.071 23.8169C15.9747 23.7964 15.8834 23.7571 15.8022 23.7013C14.6558 22.9096 13.2954 22.4858 11.9022 22.4863H8.8532C7.02409 22.4892 5.27074 23.2171 3.97737 24.5105C2.684 25.8039 1.9561 27.5572 1.9532 29.3863V39.3323H15.1582C15.3571 39.3323 15.5479 39.4113 15.6885 39.552C15.8292 39.6927 15.9082 39.8834 15.9082 40.0823C15.9082 40.2812 15.8292 40.472 15.6885 40.6127C15.5479 40.7533 15.3571 40.8323 15.1582 40.8323V40.8323Z" fill="#00796B"/>
<rect x="24" y="10" width="9" height="3" fill="#00796B"/>
</svg>
