<svg width="157" height="60" xmlns="http://www.w3.org/2000/svg">

 <g>
  <title>background</title>
  <rect fill="none" id="canvas_background" height="62" width="159" y="-1" x="-1"/>
 </g>
 <g>
  <title>Layer 1</title>
  <path stroke="null" fill="#00796b" id="XMLID_54_" d="m44.241745,34.113843c-0.126664,-0.117007 -0.287872,-0.198558 -0.464433,-0.235788c-0.343527,-0.070914 -0.746547,0.021274 -1.318452,0.171965c-0.792607,0.209195 -1.992072,0.522987 -3.506276,0.522987c-2.560138,0 -5.049268,-0.925422 -7.402139,-2.7479l2.723266,-2.513886c0.274438,-0.253516 0.356961,-0.634676 0.207268,-0.966197c-0.147774,-0.331521 -0.498977,-0.547807 -0.886645,-0.547807l-2.22045,0c-1.065125,0 -1.930659,-0.79955 -1.930659,-1.783476l0,-2.049402c0,-0.358113 -0.234136,-0.682543 -0.593016,-0.819052c-0.362718,-0.138281 -0.773415,-0.062049 -1.045934,0.193239l-2.719427,2.517431c-4.116564,-4.52783 -2.930533,-8.387301 -2.412364,-10.075043c0.168885,-0.547807 0.270599,-0.877555 0.186157,-1.219713c-0.040302,-0.163101 -0.128583,-0.310247 -0.255246,-0.427254c-2.682963,-2.49793 -6.258329,-3.87188 -10.06783,-3.87188c-2.001667,0 -3.940003,0.377615 -5.765109,1.122207c-0.282114,0.115235 -0.485543,0.347476 -0.550794,0.625812c-0.063332,0.276563 0.021111,0.567308 0.22454,0.778276c3.619506,3.71587 4.936039,8.816328 3.523549,13.645541c-0.097876,0.331521 0.021111,0.682543 0.303225,0.905921c0.243731,0.191467 0.487463,0.386479 0.715841,0.595674c2.132169,1.967851 3.396885,4.595198 3.56577,7.396284c0.02303,0.391797 0.024949,0.783595 0.005757,1.173619c-0.107472,2.026355 -0.990278,4.109441 -2.558219,6.020561l-0.464433,0.567308c-0.289791,0.352795 -0.253327,0.84919 0.086361,1.161209c0.337769,0.313792 0.873211,0.349249 1.257039,0.079778l0.614126,-0.4308c2.068837,-1.446637 4.325751,-2.262142 6.519333,-2.359649c0.424131,-0.019501 0.846343,-0.017728 1.270473,0.003546c3.032248,0.154237 5.876419,1.324311 8.010508,3.293935c0.228378,0.210968 0.437565,0.436118 0.642913,0.659496c0.239893,0.260607 0.614126,0.36875 0.982602,0.281881c5.131791,-1.287081 10.810539,-0.042548 14.77741,3.251386c0.176561,0.150691 0.408778,0.230469 0.642913,0.230469c0.06717,0 0.13434,-0.005319 0.199591,-0.019501c0.301306,-0.058504 0.552714,-0.248197 0.677458,-0.508805c2.368224,-4.944448 1.170678,-10.821408 -2.974673,-14.622375z"/>
  <text stroke="null" transform="matrix(3.9320775819682336,0,0,5.8406858322535955,-10.102194013379147,-8.118645313880304) " xml:space="preserve" text-anchor="start" font-family="Junction, sans-serif" font-size="5" id="svg_19" y="7.869119" x="18.283768" stroke-opacity="null" stroke-width="0" fill="#00796b">covigram</text>
 </g>
</svg>